# Blender v2.90.0 OBJ File: 'tower.blend'
# www.blender.org
o Circle.002
v 0.049497 0.000000 0.052041
v 0.070000 0.000000 0.002544
v 0.049497 0.000000 -0.046954
v 0.049497 0.043486 0.052041
v 0.070000 0.043486 0.002544
v 0.049497 0.043486 -0.046954
v 0.037808 0.025000 -0.035264
v 0.053468 0.025000 0.002544
v 0.037808 0.025000 0.040351
v 0.030335 0.058263 0.032879
v 0.042901 0.058263 0.002544
v 0.030335 0.058263 -0.027791
v 0.045152 0.088116 -0.042608
v 0.063855 0.088116 0.002544
v 0.045152 0.088116 0.047696
v 0.029572 0.119589 0.032769
v 0.050771 0.120500 0.002544
v 0.035901 0.120500 -0.033357
v 0.035345 0.211623 0.010124
v 0.032685 0.180861 0.047825
v 0.032685 0.180861 0.010084
v 0.021718 0.210540 -0.013503
v 0.018508 0.183230 -0.009336
v 0.014933 0.194518 -0.056467
v 0.012736 0.176329 -0.051314
v 0.012713 0.247727 0.047764
v 0.034215 0.207131 0.046151
v -0.049497 0.000000 0.052041
v -0.070000 0.000000 0.002544
v -0.049497 0.000000 -0.046954
v -0.049497 0.043486 0.052041
v -0.070000 0.043486 0.002544
v -0.049497 0.043486 -0.046954
v -0.037808 0.025000 -0.035264
v -0.053468 0.025000 0.002544
v -0.037808 0.025000 0.040351
v -0.030335 0.058263 0.032879
v -0.042901 0.058263 0.002544
v -0.030335 0.058263 -0.027791
v -0.045152 0.088116 -0.042608
v -0.063855 0.088116 0.002544
v -0.045152 0.088116 0.047696
v 0.000000 0.000000 -0.067456
v 0.000000 0.000000 0.072544
v 0.000000 0.043486 -0.067456
v 0.000000 0.043486 0.072544
v 0.000000 0.025000 0.056012
v 0.000000 0.025000 -0.050924
v 0.000000 0.058263 -0.040357
v 0.000000 0.058263 0.045444
v 0.000000 0.088116 -0.061311
v 0.000000 0.088116 0.066399
v 0.000000 0.120500 0.053315
v -0.029572 0.119589 0.032769
v -0.050771 0.120500 0.002544
v -0.035901 0.120500 -0.033357
v 0.000000 0.120500 -0.048227
v 0.000000 0.235207 0.010124
v -0.002960 0.249609 0.012679
v 0.000000 0.177855 -0.008316
v 0.000000 0.227676 -0.016118
v -0.035345 0.211623 0.010124
v 0.000000 0.180861 0.066696
v -0.032685 0.180861 0.047825
v -0.032685 0.180861 0.010084
v -0.021718 0.210540 -0.013503
v -0.018508 0.183230 -0.009336
v 0.000000 0.205931 -0.059700
v 0.000000 0.170069 -0.049541
v -0.014933 0.194518 -0.056467
v -0.012736 0.176329 -0.051314
v 0.000000 0.185191 -0.064537
v -0.012713 0.247727 0.047764
v -0.034215 0.207131 0.046151
v 0.000000 0.222266 0.065591
v 0.000000 0.247723 0.047768
v 0.002960 0.249609 0.012679
vt 0.320246 0.215524
vt 0.329690 0.221786
vt 0.324208 0.222471
vt 0.321900 0.230448
vt 0.314873 0.240225
vt 0.314406 0.235145
vt 0.312587 0.214026
vt 0.323578 0.211114
vt 0.326330 0.233901
vt 0.319428 0.222953
vt 0.317926 0.227032
vt 0.313014 0.218095
vt 0.317540 0.219132
vt 0.313840 0.228937
vt 0.311969 0.207659
vt 0.335993 0.196658
vt 0.345161 0.250485
vt 0.351296 0.220324
vt 0.317790 0.271986
vt 0.310575 0.192791
vt 0.358118 0.166759
vt 0.321094 0.308086
vt 0.388457 0.214953
vt 0.374143 0.270903
vt 0.614051 0.179037
vt 0.614051 0.458112
vt 0.342531 0.542341
vt 0.306851 0.152492
vt 0.461207 0.022299
vt 0.213717 0.762897
vt 0.206684 0.767145
vt 0.204170 0.760679
vt 0.197018 0.775552
vt 0.182808 0.761678
vt 0.201284 0.799488
vt 0.009758 0.884343
vt 0.136496 0.990242
vt 0.012519 0.720039
vt 0.109896 0.593264
vt 0.202179 0.741116
vt 0.282034 0.561857
vt 0.221562 0.739780
vt 0.209093 0.773274
vt 0.210901 0.771175
vt 0.209341 0.771711
vt 0.209951 0.773970
vt 0.210395 0.772664
vt 0.207029 0.751724
vt 0.214454 0.756756
vt 0.216872 0.753555
vt 0.215639 0.757067
vt 0.297007 0.224822
vt 0.305258 0.217063
vt 0.302486 0.224531
vt 0.306210 0.231894
vt 0.301141 0.213296
vt 0.307206 0.224218
vt 0.309452 0.227774
vt 0.308627 0.220211
vt 0.286284 0.201313
vt 0.302493 0.236089
vt 0.275507 0.227286
vt 0.286993 0.255813
vt 0.259053 0.175938
vt 0.238018 0.228744
vt 0.009758 0.234474
vt 0.060351 0.508706
vt 0.262209 0.281132
vt 0.131389 0.052731
vt 0.216696 0.770548
vt 0.222617 0.766953
vt 0.219240 0.783094
vt 0.238945 0.780742
vt 0.301504 0.983420
vt 0.399351 0.851439
vt 0.399351 0.691622
vt 0.236100 0.752668
vt 0.211056 0.773941
vt 0.212140 0.767528
vt 0.211811 0.772550
vt 0.225783 0.758127
vt 0.216764 0.757595
vt 0.215055 0.759017
vt 0.000000 0.000000
vt 0.293703 0.009758
vn 0.7122 -0.6369 -0.2950
vn 0.2950 -0.6369 0.7122
vn 0.2950 -0.6369 -0.7122
vn 0.7122 -0.6369 0.2950
vn 0.7884 0.5213 0.3266
vn 0.3266 0.5213 -0.7884
vn 0.3266 0.5213 0.7884
vn 0.7884 0.5213 -0.3266
vn 0.1945 0.8612 -0.4696
vn 0.4696 0.8612 0.1945
vn 0.4696 0.8612 -0.1945
vn 0.1945 0.8612 0.4696
vn 0.3211 -0.5441 -0.7752
vn 0.3211 -0.5441 0.7752
vn 0.7752 -0.5441 -0.3211
vn 0.7752 -0.5441 0.3211
vn 0.0000 -1.0000 0.0000
vn 0.8655 0.3497 -0.3585
vn 0.5484 0.3133 0.7754
vn 0.3585 0.3497 -0.8655
vn 0.6692 0.5619 0.4863
vn -0.5225 -0.7831 0.3373
vn -0.8018 0.0685 0.5937
vn 0.3219 0.5408 -0.7771
vn 0.8787 0.3088 -0.3640
vn 0.8044 0.1699 0.5693
vn 0.5512 -0.2254 0.8033
vn 0.3684 0.5559 -0.7452
vn 0.4910 -0.1885 0.8505
vn 0.9987 -0.0507 0.0000
vn 0.2513 -0.9216 -0.2958
vn 0.2829 -0.9519 0.1176
vn -0.6146 -0.7024 0.3590
vn -0.9825 0.1500 0.1104
vn 0.2400 -0.6836 -0.6893
vn -0.3588 -0.2120 0.9090
vn -0.5875 0.2855 0.7572
vn 0.9983 -0.0581 0.0000
vn -0.5510 -0.8258 -0.1203
vn -0.7970 -0.4387 0.4151
vn -0.5626 -0.2669 -0.7824
vn -0.0001 -0.5735 -0.8192
vn 0.5016 0.0231 0.8648
vn -0.7122 -0.6369 -0.2950
vn -0.2950 -0.6369 0.7122
vn -0.2950 -0.6369 -0.7122
vn -0.7122 -0.6369 0.2950
vn -0.7884 0.5213 0.3266
vn -0.3266 0.5213 -0.7884
vn -0.3266 0.5213 0.7884
vn -0.7884 0.5213 -0.3266
vn -0.1945 0.8612 -0.4696
vn -0.4696 0.8612 0.1945
vn -0.4696 0.8612 -0.1945
vn -0.1945 0.8612 0.4696
vn -0.3211 -0.5441 -0.7752
vn -0.3211 -0.5441 0.7752
vn -0.7752 -0.5441 -0.3211
vn -0.7752 -0.5441 0.3211
vn -0.8655 0.3497 -0.3585
vn -0.3241 0.5316 0.7825
vn -0.3585 0.3497 -0.8655
vn -0.8655 0.3497 0.3585
vn 0.5225 -0.7831 0.3373
vn 0.8018 0.0685 0.5937
vn -0.3219 0.5408 -0.7771
vn -0.8787 0.3088 -0.3640
vn -0.8044 0.1699 0.5693
vn -0.5512 -0.2254 0.8033
vn -0.3684 0.5559 -0.7452
vn -0.4910 -0.1885 0.8505
vn -0.9987 -0.0507 0.0000
vn -0.2513 -0.9216 -0.2958
vn -0.2829 -0.9519 0.1176
vn 0.6050 -0.7125 0.3555
vn 0.9855 0.1321 0.1064
vn -0.2400 -0.6836 -0.6893
vn 0.3588 -0.2120 0.9090
vn 0.5875 0.2855 0.7572
vn -0.9983 -0.0581 0.0000
vn 0.5510 -0.8258 -0.1203
vn 0.7970 -0.4387 0.4151
vn 0.5626 -0.2669 -0.7824
vn 0.0001 -0.5735 -0.8192
vn -0.4998 0.0261 0.8657
vn 0.9509 0.1471 0.2722
vn -0.0003 -0.9986 -0.0537
vn 0.0003 -0.9986 -0.0537
vn 0.0000 -0.9986 -0.0537
vn -0.9509 0.1471 0.2722
vn 0.0000 -0.1747 0.9846
vn 0.3241 0.5316 0.7825
vn 0.8655 0.3497 0.3585
vn -0.6207 -0.7536 0.2163
vn -0.8564 0.1748 0.4859
vn 0.4534 -0.8758 0.1654
vn -0.6050 -0.7125 0.3555
vn -0.9855 0.1321 0.1064
vn 0.9961 -0.0862 0.0205
vn 0.4998 0.0261 0.8657
vn -0.5484 0.3133 0.7754
vn -0.6692 0.5619 0.4863
vn 0.6207 -0.7536 0.2163
vn 0.8564 0.1748 0.4859
vn -0.4534 -0.8758 0.1654
vn 0.6146 -0.7024 0.3590
vn 0.9825 0.1500 0.1104
vn -0.9961 -0.0862 0.0205
vn -0.5016 0.0231 0.8648
s off
f 7/1/1 5/2/1 8/3/1
f 9/4/2 46/5/2 47/6/2
f 48/7/3 6/8/3 7/1/3
f 9/4/4 5/2/4 4/9/4
f 2/10/5 9/4/5 1/11/5
f 43/12/6 7/1/6 3/13/6
f 1/11/7 47/6/7 44/14/7
f 3/13/8 8/3/8 2/10/8
f 45/15/9 12/16/9 6/8/9
f 5/2/10 10/17/10 4/9/10
f 5/2/11 12/16/11 11/18/11
f 4/9/12 50/19/12 46/5/12
f 49/20/13 13/21/13 12/16/13
f 10/17/14 52/22/14 50/19/14
f 11/18/15 13/21/15 14/23/15
f 11/18/16 15/24/16 10/17/16
f 43/12/17 2/10/17 1/11/17
f 13/21/18 17/25/18 14/23/18
f 52/22/19 16/26/19 53/27/19
f 51/28/20 18/29/20 13/21/20
f 15/24/21 17/25/21 16/26/21
f 58/30/22 22/31/22 19/32/22
f 19/32/23 23/33/23 21/34/23
f 60/35/24 18/36/24 57/37/24
f 21/34/25 17/38/25 18/36/25
f 17/38/26 21/34/26 16/39/26
f 20/40/27 53/41/27 16/39/27
f 60/35/28 21/34/28 18/36/28
f 20/40/29 63/42/29 53/41/29
f 21/34/30 20/40/30 16/39/30
f 60/35/31 23/33/31 21/34/31
f 60/35/32 25/43/32 23/33/32
f 22/31/33 68/44/33 24/45/33
f 23/33/34 24/45/34 25/43/34
f 25/43/35 69/46/35 72/47/35
f 24/45/36 68/44/36 72/47/36
f 25/43/37 24/45/37 72/47/37
f 21/34/38 27/48/38 20/40/38
f 19/32/39 27/48/39 58/30/39
f 26/49/40 58/30/40 27/48/40
f 27/48/41 75/50/41 26/49/41
f 75/50/42 76/51/42 26/49/42
f 63/42/43 27/48/43 75/50/43
f 32/52/44 34/53/44 35/54/44
f 46/5/45 36/55/45 47/6/45
f 33/56/46 48/7/46 34/53/46
f 36/55/47 32/52/47 35/54/47
f 36/55/48 29/57/48 28/58/48
f 34/53/49 43/12/49 30/59/49
f 47/6/50 28/58/50 44/14/50
f 35/54/51 30/59/51 29/57/51
f 39/60/52 45/15/52 33/56/52
f 31/61/53 38/62/53 32/52/53
f 38/62/54 33/56/54 32/52/54
f 50/19/55 31/61/55 46/5/55
f 39/60/56 51/28/56 49/20/56
f 52/22/57 37/63/57 50/19/57
f 38/62/58 40/64/58 39/60/58
f 37/63/59 41/65/59 38/62/59
f 28/58/17 30/59/17 43/12/17
f 55/66/60 40/64/60 41/65/60
f 52/22/61 54/67/61 42/68/61
f 56/69/62 51/28/62 40/64/62
f 42/68/63 55/66/63 41/65/63
f 66/70/64 58/30/64 62/71/64
f 67/72/65 62/71/65 65/73/65
f 60/35/66 57/37/66 56/74/66
f 65/73/67 56/74/67 55/75/67
f 55/75/68 54/76/68 65/73/68
f 64/77/69 54/76/69 53/41/69
f 60/35/70 56/74/70 65/73/70
f 64/77/71 53/41/71 63/42/71
f 65/73/72 54/76/72 64/77/72
f 60/35/73 65/73/73 67/72/73
f 71/78/74 60/35/74 67/72/74
f 66/70/75 68/44/75 61/79/75
f 67/72/76 70/80/76 66/70/76
f 71/78/77 72/47/77 69/46/77
f 70/80/78 72/47/78 68/44/78
f 71/78/79 72/47/79 70/80/79
f 74/81/80 65/73/80 64/77/80
f 62/71/81 58/30/81 74/81/81
f 73/82/82 74/81/82 58/30/82
f 74/81/83 73/82/83 75/50/83
f 75/50/84 73/82/84 76/51/84
f 63/42/85 74/81/85 64/77/85
f 59/83/86 73/82/86 58/30/86
f 73/82/87 59/83/87 76/51/87
f 76/51/88 77/84/88 26/49/88
f 77/84/89 76/51/89 59/83/89
f 26/49/90 77/84/90 58/30/90
f 59/83/91 58/30/91 77/84/91
f 7/1/1 6/8/1 5/2/1
f 9/4/2 4/9/2 46/5/2
f 48/7/3 45/15/3 6/8/3
f 9/4/4 8/3/4 5/2/4
f 2/10/5 8/3/5 9/4/5
f 43/12/6 48/7/6 7/1/6
f 1/11/7 9/4/7 47/6/7
f 3/13/8 7/1/8 8/3/8
f 45/15/9 49/20/9 12/16/9
f 5/2/10 11/18/10 10/17/10
f 5/2/11 6/8/11 12/16/11
f 4/9/12 10/17/12 50/19/12
f 49/20/13 51/28/13 13/21/13
f 10/17/14 15/24/14 52/22/14
f 11/18/15 12/16/15 13/21/15
f 11/18/16 14/23/16 15/24/16
f 1/11/17 44/14/17 43/12/17
f 43/12/17 3/13/17 2/10/17
f 13/21/18 18/29/18 17/25/18
f 52/22/92 15/24/92 16/26/92
f 51/28/20 57/85/20 18/29/20
f 15/24/93 14/23/93 17/25/93
f 58/30/94 61/79/94 22/31/94
f 19/32/95 22/31/95 23/33/95
f 60/35/96 69/46/96 25/43/96
f 22/31/97 61/79/97 68/44/97
f 23/33/98 22/31/98 24/45/98
f 21/34/99 19/32/99 27/48/99
f 63/42/100 20/40/100 27/48/100
f 32/52/44 33/56/44 34/53/44
f 46/5/45 31/61/45 36/55/45
f 33/56/46 45/15/46 48/7/46
f 36/55/47 31/61/47 32/52/47
f 36/55/48 35/54/48 29/57/48
f 34/53/49 48/7/49 43/12/49
f 47/6/50 36/55/50 28/58/50
f 35/54/51 34/53/51 30/59/51
f 39/60/52 49/20/52 45/15/52
f 31/61/53 37/63/53 38/62/53
f 38/62/54 39/60/54 33/56/54
f 50/19/55 37/63/55 31/61/55
f 39/60/56 40/64/56 51/28/56
f 52/22/57 42/68/57 37/63/57
f 38/62/58 41/65/58 40/64/58
f 37/63/59 42/68/59 41/65/59
f 43/12/17 44/14/17 28/58/17
f 28/58/17 29/57/17 30/59/17
f 55/66/60 56/69/60 40/64/60
f 52/22/101 53/27/101 54/67/101
f 56/69/62 57/85/62 51/28/62
f 42/68/102 54/67/102 55/66/102
f 66/70/103 61/79/103 58/30/103
f 67/72/104 66/70/104 62/71/104
f 71/78/105 69/46/105 60/35/105
f 66/70/106 70/80/106 68/44/106
f 67/72/107 71/78/107 70/80/107
f 74/81/108 62/71/108 65/73/108
f 63/42/109 75/50/109 74/81/109
